<svg width="35" height="41" viewBox="0 0 35 41" fill="none" xmlns="http://www.w3.org/2000/svg">
<circle cx="17.5" cy="17.5" r="17.5" fill="white"/>
<g clip-path="url(#clip0_4_146)">
<path fill-rule="evenodd" clip-rule="evenodd" d="M10.8323 32.8317C10.6622 32.6317 10.5526 32.3869 10.5162 32.1261C10.4799 31.8654 10.5184 31.5996 10.6273 31.3602C10.7361 31.1208 10.9108 30.9178 11.1305 30.7752C11.3503 30.6326 11.6059 30.5564 11.8673 30.5556H24.1336C24.395 30.5564 24.6506 30.6326 24.8704 30.7752C25.0901 30.9178 25.2648 31.1208 25.3736 31.3602C25.4825 31.5996 25.521 31.8654 25.4847 32.1261C25.4484 32.3869 25.3387 32.6317 25.1686 32.8317L19.5005 39.4598C19.3245 39.6654 19.1066 39.8303 18.8617 39.9434C18.6168 40.0565 18.3505 40.1151 18.0811 40.1152H17.9236C17.6541 40.1151 17.3879 40.0565 17.1429 39.9434C16.898 39.8303 16.6802 39.6654 16.5042 39.4598L10.8323 32.8317Z" fill="white"/>
</g>
<defs>
<clipPath id="clip0_4_146">
<rect width="16" height="10" fill="white" transform="translate(10 31)"/>
</clipPath>
</defs>
</svg>
